<?xml version="1.0" encoding="UTF-8"?>
<!DOCTYPE svg PUBLIC "-//W3C//DTD SVG 1.1//EN" "http://www.w3.org/Graphics/SVG/1.1/DTD/svg11.dtd">
<!-- Creator: CorelDRAW 2018 (64-Bit Evaluation Version) -->
<svg xmlns="http://www.w3.org/2000/svg" xml:space="preserve" width="0.617425in" height="0.500217in" version="1.1" style="shape-rendering:geometricPrecision; text-rendering:geometricPrecision; image-rendering:optimizeQuality; fill-rule:evenodd; clip-rule:evenodd"
viewBox="0 0 129.14 104.63"
 xmlns:xlink="http://www.w3.org/1999/xlink">
 <defs>
  <style type="text/css">
   <![CDATA[
    .fil0 {fill:#2F2CD8}
    .fil1 {fill:#5CB923}
   ]]>
  </style>
 </defs>
 <g id="Layer_x0020_1">
  <metadata id="CorelCorpID_0Corel-Layer"/>
  <path class="fil0" d="M112.89 55.25c-2.39,1.84 -2.64,2.89 -6.32,4.82 -2.61,1.36 -5.66,2.25 -9.1,2.31 -6.18,0.11 -12.36,-2.41 -16.25,-6.68 -2.47,-2.71 -14.91,-24.96 -17.01,-28.62 -2.19,-3.82 -10.08,-18.45 -12.9,-20.97 -8.49,-7.61 -16.43,-5.94 -28.41,-5.96 -7.63,-0.01 -15.27,-0.02 -22.91,-0 0.31,1.04 0.95,1.8 1.44,2.67l10.67 18.5c2.08,3.52 4.08,6.97 6.12,10.58l21.38 37.01c2.84,4.7 6.48,11.68 9.18,15.92 5.07,7.96 6.38,14.25 15.15,18.02 10.16,4.38 19.37,-0.01 24.3,-5.59 2.79,-3.16 9.81,-16.31 12.48,-20.89 3.03,-5.18 9.73,-16.37 12.16,-21.11z"/>
  <path class="fil1" d="M105.55 0.35c-6.46,0.98 -10.53,4.03 -13.37,7.47 -3.02,3.64 -5.42,9.29 -4.6,15.89 1.31,10.52 11.21,19.8 23.6,17.98 11.31,-1.66 19.21,-11.81 17.8,-23.38 -1.26,-10.29 -11.27,-19.81 -23.43,-17.97zm-9.93 21.36l0 0c0,-1.99 1.63,-3.61 3.61,-3.61l5.47 0 0 -5.47c0,-1.99 1.63,-3.61 3.61,-3.61l0 0c1.99,0 3.61,1.63 3.61,3.61l0 5.47 5.47 0c1.99,0 3.61,1.63 3.61,3.61l0 0c0,1.99 -1.63,3.61 -3.61,3.61l-5.47 0 0 5.47c0,1.99 -1.63,3.61 -3.61,3.61l0 0c-1.99,0 -3.61,-1.63 -3.61,-3.61l0 -5.47 -5.47 0c-1.99,0 -3.61,-1.63 -3.61,-3.61z"/>
 </g>
</svg>
