<?xml version="1.0" encoding="UTF-8"?>
<!DOCTYPE svg PUBLIC "-//W3C//DTD SVG 1.1//EN" "http://www.w3.org/Graphics/SVG/1.1/DTD/svg11.dtd">
<!-- Creator: CorelDRAW 2018 (64-Bit Evaluation Version) -->
<svg xmlns="http://www.w3.org/2000/svg" xml:space="preserve" width="0.681827in" height="0.681827in" version="1.1" style="shape-rendering:geometricPrecision; text-rendering:geometricPrecision; image-rendering:optimizeQuality; fill-rule:evenodd; clip-rule:evenodd"
viewBox="0 0 153.83 153.83"
 xmlns:xlink="http://www.w3.org/1999/xlink">
 <defs>
  <style type="text/css">
   <![CDATA[
    .fil0 {fill:none}
    .fil1 {fill:#FEFEFE}
    .fil2 {fill:#5CB923}
   ]]>
  </style>
 </defs>
 <g id="Layer_x0020_1">
  <metadata id="CorelCorpID_0Corel-Layer"/>
  <rect class="fil0" width="153.83" height="153.83"/>
  <path class="fil1" d="M129.68 79.59c-2.58,1.98 -2.84,3.12 -6.82,5.19 -2.81,1.47 -6.1,2.43 -9.81,2.5 -6.67,0.12 -13.33,-2.6 -17.53,-7.21 -2.67,-2.93 -16.08,-26.93 -18.34,-30.88 -2.36,-4.13 -10.88,-19.9 -13.91,-22.62 -9.16,-8.21 -17.72,-6.41 -30.64,-6.43 -8.24,-0.01 -16.48,-0.02 -24.71,-0 0.34,1.12 1.03,1.94 1.55,2.88l11.51 19.95c2.24,3.79 4.4,7.52 6.6,11.41l23.06 39.92c3.06,5.07 7,12.6 9.91,17.17 5.46,8.59 6.88,15.37 16.34,19.44 10.96,4.72 20.89,-0.01 26.22,-6.03 3.01,-3.41 10.58,-17.6 13.47,-22.54 3.27,-5.59 10.5,-17.66 13.11,-22.77z"/>
  <path class="fil2" d="M121.77 20.37c-6.97,1.05 -11.35,4.35 -14.43,8.06 -3.26,3.93 -5.84,10.02 -4.96,17.15 1.41,11.35 12.1,21.36 25.46,19.4 12.2,-1.79 20.72,-12.74 19.2,-25.22 -1.35,-11.1 -12.15,-21.37 -25.27,-19.38z"/>
  <path class="fil1" d="M111.06 43.41l0 0c0,-2.14 1.75,-3.9 3.9,-3.9l5.9 0 0 -5.9c0,-2.14 1.75,-3.9 3.9,-3.9l0 0c2.14,0 3.9,1.75 3.9,3.9l0 5.9 5.9 0c2.14,0 3.9,1.75 3.9,3.9l0 0c0,2.14 -1.75,3.9 -3.9,3.9l-5.9 0 0 5.9c0,2.14 -1.75,3.9 -3.9,3.9l0 0c-2.14,0 -3.9,-1.75 -3.9,-3.9l0 -5.9 -5.9 0c-2.14,0 -3.9,-1.75 -3.9,-3.9z"/>
 </g>
</svg>
